<?xml version="1.0" encoding="UTF-8" standalone="no"?>
<!-- Created with Inkscape (http://www.inkscape.org/) -->

<svg
   xmlns:dc="http://purl.org/dc/elements/1.1/"
   xmlns:cc="http://creativecommons.org/ns#"
   xmlns:rdf="http://www.w3.org/1999/02/22-rdf-syntax-ns#"
   xmlns:svg="http://www.w3.org/2000/svg"
   xmlns="http://www.w3.org/2000/svg"
   xmlns:sodipodi="http://sodipodi.sourceforge.net/DTD/sodipodi-0.dtd"
   xmlns:inkscape="http://www.inkscape.org/namespaces/inkscape"
   width="2267.7163"
   height="1133.8582"
   id="svg2"
   version="1.1"
   inkscape:version="0.92.3 (2405546, 2018-03-11)"
   sodipodi:docname="parallax.svg">
  <title
     id="title3511">Sozi demo: parallax</title>
  <sodipodi:namedview
     id="base"
     pagecolor="#ffffff"
     bordercolor="#666666"
     borderopacity="1.0"
     inkscape:pageopacity="0.0"
     inkscape:pageshadow="2"
     inkscape:zoom="0.49497475"
     inkscape:cx="364.97606"
     inkscape:cy="727.59088"
     inkscape:document-units="px"
     inkscape:current-layer="layer1"
     showgrid="true"
     units="mm"
     inkscape:window-width="1366"
     inkscape:window-height="705"
     inkscape:window-x="0"
     inkscape:window-y="30"
     inkscape:window-maximized="1"
     inkscape:snap-grids="true">
    <inkscape:grid
       spacingy="3.7795276"
       spacingx="3.7795276"
       units="mm"
       snapvisiblegridlinesonly="true"
       enabled="true"
       visible="true"
       empspacing="5"
       id="grid2985"
       type="xygrid"
       originx="0"
       originy="0" />
  </sodipodi:namedview>
  <defs
     id="defs4" />
  <metadata
     id="metadata7">
    <rdf:RDF>
      <cc:Work
         rdf:about="">
        <dc:format>image/svg+xml</dc:format>
        <dc:type
           rdf:resource="http://purl.org/dc/dcmitype/StillImage" />
        <dc:title>Sozi demo: parallax</dc:title>
        <dc:date>2019-12-23</dc:date>
        <dc:creator>
          <cc:Agent>
            <dc:title>Guillaume Savaton</dc:title>
          </cc:Agent>
        </dc:creator>
        <cc:license
           rdf:resource="http://creativecommons.org/licenses/by-sa/4.0/" />
      </cc:Work>
      <cc:License
         rdf:about="http://creativecommons.org/licenses/by-sa/4.0/">
        <cc:permits
           rdf:resource="http://creativecommons.org/ns#Reproduction" />
        <cc:permits
           rdf:resource="http://creativecommons.org/ns#Distribution" />
        <cc:requires
           rdf:resource="http://creativecommons.org/ns#Notice" />
        <cc:requires
           rdf:resource="http://creativecommons.org/ns#Attribution" />
        <cc:permits
           rdf:resource="http://creativecommons.org/ns#DerivativeWorks" />
        <cc:requires
           rdf:resource="http://creativecommons.org/ns#ShareAlike" />
      </cc:License>
    </rdf:RDF>
  </metadata>
  <g
     style="display:inline"
     transform="translate(0,11.338576)"
     id="layer1"
     inkscape:groupmode="layer"
     inkscape:label="Sky">
    <rect
       inkscape:label="#rect2987"
       y="45.354309"
       x="170.07875"
       height="113.38583"
       width="151.18111"
       id="ciel"
       style="fill:#87cdde;stroke:none;stroke-width:1.06666672" />
    <circle
       id="path2989"
       style="fill:#ffff00;fill-opacity:1;fill-rule:nonzero;stroke:none;stroke-width:0.85333329"
       cx="279.68503"
       cy="79.370056"
       r="7.5590549" />
  </g>
  <g
     style="display:inline"
     inkscape:label="Clouds"
     id="layer2"
     inkscape:groupmode="layer">
    <path
       sodipodi:nodetypes="cscscscscsc"
       inkscape:connector-curvature="0"
       id="path2997"
       d="m 366.61418,219.21253 c 0,0 0,-7.55905 11.33858,-7.55905 7.55905,0 11.33858,7.55905 11.33858,7.55905 0,0 3.77953,-3.77952 11.33858,-3.77952 7.55905,0 11.17114,7.08799 11.17114,7.08799 0,0 7.7265,0.47106 7.7265,4.25059 0,7.55906 -11.33859,7.55906 -11.33859,7.55906 0,0 -7.55905,7.55906 -18.89763,7.55906 -22.67716,0 -26.45669,-7.55906 -26.45669,-7.55906 0,0 -7.55906,0 -7.55906,-7.55906 0,-7.55906 11.33859,-7.55906 11.33859,-7.55906 z"
       style="fill:#ffffff;stroke:none;stroke-width:1.06666672" />
    <path
       style="fill:#ffffff;stroke:none;stroke-width:1.06666672"
       d="m 200.31495,222.99207 c 0,0 3.77954,-3.77952 7.55907,-3.77953 7.55905,-1e-5 7.55905,3.77952 7.55905,3.77952 0,0 1e-5,-3.77952 7.55906,-3.77952 7.55905,0 7.55905,7.55907 7.55905,7.55907 0,0 5.46978,4.17853 3.77953,7.55905 -3.77953,7.55905 -15.11811,3.77953 -15.11811,3.77953 0,0 0,3.77952 -11.33858,3.77952 -11.33859,0 -11.33859,-7.55905 -11.33859,-7.55905 0,0 -11.33859,0 -7.55906,-7.55905 3.77953,-7.55907 11.33858,-3.77954 11.33858,-3.77954 z"
       id="path3003"
       inkscape:connector-curvature="0"
       sodipodi:nodetypes="cscscscscsc" />
    <rect
       inkscape:label="#rect3039"
       style="fill:none;stroke:#ff6600;stroke-width:1.06666672"
       id="nuages-depart"
       width="151.18111"
       height="113.38583"
       x="170.07875"
       y="188.97632" />
    <rect
       inkscape:label="#rect3041"
       y="188.97632"
       x="325.03937"
       height="113.38583"
       width="151.18111"
       id="nuages-arrivee"
       style="fill:none;stroke:#ff6600;stroke-width:1.06666672" />
  </g>
  <g
     style="display:inline"
     inkscape:label="Trees"
     id="layer4"
     inkscape:groupmode="layer">
    <path
       sodipodi:nodetypes="csczczccscscsczcscccccsccccc"
       inkscape:connector-curvature="0"
       id="path3059"
       d="m 170.07874,396.85033 c 0,0 3.77953,-11.33859 15.11811,-11.33859 6.78446,0 11.33858,3.77953 11.33858,3.77953 0,0 3.77954,-11.33858 15.11812,-11.33858 11.33858,0 15.11811,15.11812 15.11811,15.11812 0,0 11.33858,-3.77954 18.89763,0 7.55905,3.77952 11.33858,18.89763 11.33858,18.89763 0,0 3.77953,-11.33858 22.67716,-11.33858 3.77954,-15.11812 11.33859,-22.67719 26.4567,-22.67718 15.11811,1e-5 22.67717,11.33859 22.67717,11.33859 0,0 11.33858,-15.11811 30.23621,-15.11811 11.33859,0 18.89765,3.77953 18.89765,3.77953 0,0 3.77953,-7.55906 18.89763,-7.55906 15.11811,0 18.89764,15.11811 18.89764,15.11811 0,0 7.55905,-3.77952 18.89763,-3.77952 11.3386,0 18.89765,15.11811 18.89765,15.11811 0,0 8.33365,-3.77952 15.11811,-3.77952 15.11811,0 22.67716,18.89763 22.67716,18.89763 0,0 22.67716,0 22.67716,22.67716 h 15.11812 c 0,0 3.77953,-18.89763 22.67716,-18.89763 0,-11.33858 15.11811,-15.11811 22.67717,-11.33858 0,0 0,-18.89765 18.89763,-18.89765 11.33859,0 15.11812,7.55907 15.11812,7.55907 0,0 3.77953,-18.89765 22.67716,-18.89765 0,0 0,44.97336 0,60.47244 H 170.07874 Z"
       style="fill:#5fd35f;stroke:none;stroke-width:1.06666672" />
    <rect
       inkscape:label="#rect3049"
       y="321.25977"
       x="170.07875"
       height="113.38583"
       width="151.18111"
       id="arbres-depart"
       style="display:inline;fill:none;stroke:#ff6600;stroke-width:1.06666672" />
    <rect
       inkscape:label="#rect3053"
       y="321.25977"
       x="480"
       height="113.38583"
       width="151.18111"
       id="arbres-arrivee"
       style="display:inline;fill:none;stroke:#ff6600;stroke-width:1.06666672" />
    <path
       style="fill:#2da52d;fill-opacity:1;stroke:none;stroke-width:1.06666672"
       d="m 544.25197,415.74797 c 0,0 -0.68829,-10.24957 -12.74791,-10.24957 -4.02467,0 -6.72627,2.24209 -6.72627,2.24209 0,0 -2.24209,-6.72627 -8.96837,-6.72627 -6.72627,0 -9.35273,10.95422 -9.35273,10.95422 -3.77953,0 -11.33858,3.77953 -11.33858,11.33858 -7.55906,0 -7.55906,11.33858 -7.55906,11.33858 0,0 -30.23621,0 -37.79527,0 0,-11.33858 -22.3241,-20.17883 -27.28948,-20.17883 -2.24209,-8.96837 -6.72627,-13.45257 -15.69464,-13.45256 -8.96837,1e-5 -13.45257,6.72628 -13.45257,6.72628 0,0 -6.72627,-8.96837 -17.93673,-8.96837 -6.72627,0 -11.21047,2.2421 -11.21047,2.2421 0,0 -2.24209,-4.48419 -11.21045,-4.48419 -8.96837,0 -11.21047,8.96837 -11.21047,8.96837 0,0 -4.48419,-2.24209 -11.21046,-2.24209 -6.72628,0 -11.21046,8.96836 -11.21046,8.96836 0,0 -4.9437,-2.24209 -8.96838,-2.24209 -8.96837,0 -13.45255,11.21047 -13.45255,11.21047 0,0 -13.45255,0 -13.45255,13.45255 h -52.84933 c 0,0 -2.24209,-11.21046 -13.45255,-11.21046 0,-6.72628 -8.96838,-8.96837 -13.45257,-6.72628 0,0 0,-11.21046 -11.21045,-11.21046 -6.72628,0 -8.96837,4.48418 -8.96837,4.48418 0,0 -2.24209,-11.21046 -13.45256,-11.21046 0,0 0,26.67911 0,35.87348 h 385.51181 c 0,-18.89763 -11.33858,-18.89763 -11.33858,-18.89763 z"
       id="path4352"
       inkscape:connector-curvature="0"
       sodipodi:nodetypes="csczcccccscscsczcscccccsccccc" />
  </g>
  <g
     style="display:inline"
     inkscape:label="Houses"
     id="layer5"
     inkscape:groupmode="layer">
    <rect
       inkscape:label="#rect3061"
       style="display:inline;fill:none;stroke:#ff6600;stroke-width:1.06666672"
       id="maisons-depart"
       width="151.18111"
       height="113.38583"
       x="170.07875"
       y="453.54327" />
    <rect
       inkscape:label="#rect3069"
       y="453.54324"
       x="634.96063"
       height="113.38583"
       width="151.18111"
       id="maisons-arrivee"
       style="display:inline;fill:none;stroke:#ff6600;stroke-width:1.06666672" />
    <rect
       y="510.23618"
       x="226.77165"
       height="56.692913"
       width="37.795277"
       id="rect3071"
       style="fill:#ffffff;fill-opacity:1;fill-rule:nonzero;stroke:none;stroke-width:1.06666672" />
    <rect
       style="fill:#ffffff;fill-opacity:1;fill-rule:nonzero;stroke:none;stroke-width:1.06666672"
       id="rect3073"
       width="56.692886"
       height="37.795269"
       x="268.34647"
       y="529.13379" />
    <rect
       y="521.57477"
       x="377.95276"
       height="45.354317"
       width="64.251961"
       id="rect3075"
       style="fill:#ffffff;fill-opacity:1;fill-rule:nonzero;stroke:none;stroke-width:1.06666672" />
    <rect
       style="fill:#ffffff;fill-opacity:1;fill-rule:nonzero;stroke:none;stroke-width:1.06666672"
       id="rect3077"
       width="56.692921"
       height="56.692905"
       x="453.5433"
       y="510.23618" />
    <rect
       y="510.23618"
       x="514.01575"
       height="56.692905"
       width="37.795269"
       id="rect3079"
       style="fill:#ffffff;fill-opacity:1;fill-rule:nonzero;stroke:none;stroke-width:1.06666672" />
    <rect
       style="fill:#ffffff;fill-opacity:1;fill-rule:nonzero;stroke:none;stroke-width:1.06666672"
       id="rect3081"
       width="37.795288"
       height="37.795277"
       x="585.82678"
       y="529.13379" />
    <rect
       y="525.35425"
       x="642.51965"
       height="41.574802"
       width="56.692936"
       id="rect3083"
       style="fill:#ffffff;fill-opacity:1;fill-rule:nonzero;stroke:none;stroke-width:1.06666672" />
    <rect
       style="fill:#ffffff;fill-opacity:1;fill-rule:nonzero;stroke:none;stroke-width:1.06666672"
       id="rect3085"
       width="56.692936"
       height="60.472446"
       x="718.11023"
       y="506.45663" />
    <path
       inkscape:connector-curvature="0"
       id="path3087"
       d="m 226.77166,510.23616 18.89763,-22.67717 18.89764,22.67717 z"
       style="fill:#ff3c00;fill-opacity:1;stroke:none;stroke-width:1.06666672" />
    <path
       sodipodi:nodetypes="ccccc"
       style="fill:#ff3c00;fill-opacity:1;stroke:none;stroke-width:1.06666672"
       d="m 268.34646,529.1338 15.11811,-18.89764 h 26.45669 l 15.11811,18.89763 z"
       id="path3857"
       inkscape:connector-curvature="0" />
    <path
       inkscape:connector-curvature="0"
       id="path3859"
       d="m 377.95277,521.57474 15.1181,-18.89764 h 34.01574 l 15.11812,18.89764 z"
       style="fill:#ff3c00;fill-opacity:1;stroke:none;stroke-width:1.06666672"
       sodipodi:nodetypes="ccccc" />
    <path
       sodipodi:nodetypes="ccccc"
       style="fill:#ff3c00;fill-opacity:1;stroke:none;stroke-width:1.06666672"
       d="m 453.54332,510.23616 15.1181,-18.89764 h 26.45669 l 15.11811,18.89764 z"
       id="path3861"
       inkscape:connector-curvature="0" />
    <path
       inkscape:connector-curvature="0"
       id="path3863"
       d="m 514.01575,510.23616 18.89764,-26.45669 18.89763,26.45669 z"
       style="fill:#ff3c00;fill-opacity:1;stroke:none;stroke-width:1.06666672"
       sodipodi:nodetypes="cccc" />
    <path
       sodipodi:nodetypes="cccc"
       style="fill:#ff3c00;fill-opacity:1;stroke:none;stroke-width:1.06666672"
       d="m 585.82677,529.13379 18.89764,-26.45669 18.89763,26.45669 z"
       id="path3865"
       inkscape:connector-curvature="0" />
    <path
       sodipodi:nodetypes="ccccc"
       style="fill:#ff3c00;fill-opacity:1;stroke:none;stroke-width:1.06666672"
       d="m 718.11024,506.45663 15.1181,-18.89764 h 26.45669 l 15.11812,18.89764 z"
       id="path3869"
       inkscape:connector-curvature="0" />
    <rect
       y="548.03143"
       x="234.33072"
       height="18.897638"
       width="3.7795231"
       id="rect3871"
       style="fill:#552200;fill-opacity:1;fill-rule:nonzero;stroke:none;stroke-width:1.06666672" />
    <rect
       style="fill:#552200;fill-opacity:1;fill-rule:nonzero;stroke:none;stroke-width:1.06666672"
       id="rect3873"
       width="3.7795253"
       height="18.897638"
       x="302.36221"
       y="548.03143" />
    <rect
       y="548.03143"
       x="408.18896"
       height="18.897638"
       width="3.7795389"
       id="rect3875"
       style="fill:#552200;fill-opacity:1;fill-rule:nonzero;stroke:none;stroke-width:1.06666672" />
    <rect
       style="fill:#552200;fill-opacity:1;fill-rule:nonzero;stroke:none;stroke-width:1.06666672"
       id="rect3877"
       width="3.7795165"
       height="18.897638"
       x="464.8819"
       y="548.03143" />
    <rect
       y="548.03143"
       x="532.91339"
       height="18.897638"
       width="3.7795343"
       id="rect3879"
       style="fill:#552200;fill-opacity:1;fill-rule:nonzero;stroke:none;stroke-width:1.06666672" />
    <rect
       style="fill:#552200;fill-opacity:1;fill-rule:nonzero;stroke:none;stroke-width:1.06666672"
       id="rect3881"
       width="3.7795472"
       height="18.897638"
       x="593.3858"
       y="548.03143" />
    <rect
       y="548.03143"
       x="680.315"
       height="18.897638"
       width="3.7795143"
       id="rect3883"
       style="fill:#552200;fill-opacity:1;fill-rule:nonzero;stroke:none;stroke-width:1.06666672" />
    <rect
       style="fill:#552200;fill-opacity:1;fill-rule:nonzero;stroke:none;stroke-width:1.06666672"
       id="rect3885"
       width="3.7795184"
       height="18.897638"
       x="729.44885"
       y="548.03143" />
    <g
       id="g4376">
      <rect
         y="521.57477"
         x="234.33072"
         height="11.338569"
         width="7.559062"
         id="rect3891"
         style="fill:#16444f;fill-opacity:1;fill-rule:nonzero;stroke:none;stroke-width:1.06666672" />
      <path
         sodipodi:nodetypes="cccccc"
         inkscape:connector-curvature="0"
         id="path4374"
         d="m 234.61065,528.84807 -0.0418,3.73192 6.94289,-0.009 -0.003,-7.45565 c 0,0 -6.87411,-0.17258 -6.89822,3.7319 z"
         style="fill:#87cdde;fill-opacity:1;stroke:none;stroke-width:1.06666672" />
    </g>
    <g
       id="g4392"
       transform="translate(45.354326,26.456692)">
      <rect
         style="fill:#16444f;fill-opacity:1;fill-rule:nonzero;stroke:none;stroke-width:1.06666672"
         id="rect4394"
         width="7.559062"
         height="11.338569"
         x="234.33072"
         y="521.57477" />
      <path
         style="fill:#87cdde;fill-opacity:1;stroke:none;stroke-width:1.06666672"
         d="m 234.61065,528.84807 -0.0418,3.73192 6.94289,-0.009 -0.003,-7.45565 c 0,0 -6.87411,-0.17258 -6.89822,3.7319 z"
         id="path4396"
         inkscape:connector-curvature="0"
         sodipodi:nodetypes="cccccc" />
    </g>
    <g
       transform="translate(154.96063,26.456692)"
       id="g4433">
      <rect
         y="521.57477"
         x="234.33072"
         height="11.338569"
         width="7.559062"
         id="rect4435"
         style="fill:#16444f;fill-opacity:1;fill-rule:nonzero;stroke:none;stroke-width:1.06666672" />
      <path
         sodipodi:nodetypes="cccccc"
         inkscape:connector-curvature="0"
         id="path4437"
         d="m 234.61065,528.84807 -0.0418,3.73192 6.94289,-0.009 -0.003,-7.45565 c 0,0 -6.87411,-0.17258 -6.89822,3.7319 z"
         style="fill:#87cdde;fill-opacity:1;stroke:none;stroke-width:1.06666672" />
    </g>
    <g
       id="g4439"
       transform="translate(192.7559,26.456692)">
      <rect
         style="fill:#16444f;fill-opacity:1;fill-rule:nonzero;stroke:none;stroke-width:1.06666672"
         id="rect4441"
         width="7.559062"
         height="11.338569"
         x="234.33072"
         y="521.57477" />
      <path
         style="fill:#87cdde;fill-opacity:1;stroke:none;stroke-width:1.06666672"
         d="m 234.61065,528.84807 -0.0418,3.73192 6.94289,-0.009 -0.003,-7.45565 c 0,0 -6.87411,-0.17258 -6.89822,3.7319 z"
         id="path4443"
         inkscape:connector-curvature="0"
         sodipodi:nodetypes="cccccc" />
    </g>
    <g
       transform="translate(230.55118)"
       id="g4445">
      <rect
         y="521.57477"
         x="234.33072"
         height="11.338569"
         width="7.559062"
         id="rect4447"
         style="fill:#16444f;fill-opacity:1;fill-rule:nonzero;stroke:none;stroke-width:1.06666672" />
      <path
         sodipodi:nodetypes="cccccc"
         inkscape:connector-curvature="0"
         id="path4449"
         d="m 234.61065,528.84807 -0.0418,3.73192 6.94289,-0.009 -0.003,-7.45565 c 0,0 -6.87411,-0.17258 -6.89822,3.7319 z"
         style="fill:#87cdde;fill-opacity:1;stroke:none;stroke-width:1.06666672" />
    </g>
    <g
       id="g4451"
       transform="translate(257.00787)">
      <rect
         style="fill:#16444f;fill-opacity:1;fill-rule:nonzero;stroke:none;stroke-width:1.06666672"
         id="rect4453"
         width="7.559062"
         height="11.338569"
         x="234.33072"
         y="521.57477" />
      <path
         style="fill:#87cdde;fill-opacity:1;stroke:none;stroke-width:1.06666672"
         d="m 234.61065,528.84807 -0.0418,3.73192 6.94289,-0.009 -0.003,-7.45565 c 0,0 -6.87411,-0.17258 -6.89822,3.7319 z"
         id="path4455"
         inkscape:connector-curvature="0"
         sodipodi:nodetypes="cccccc" />
    </g>
    <g
       transform="translate(257.00787,26.456692)"
       id="g4457">
      <rect
         y="521.57477"
         x="234.33072"
         height="11.338569"
         width="7.559062"
         id="rect4459"
         style="fill:#16444f;fill-opacity:1;fill-rule:nonzero;stroke:none;stroke-width:1.06666672" />
      <path
         sodipodi:nodetypes="cccccc"
         inkscape:connector-curvature="0"
         id="path4461"
         d="m 234.61065,528.84807 -0.0418,3.73192 6.94289,-0.009 -0.003,-7.45565 c 0,0 -6.87411,-0.17258 -6.89822,3.7319 z"
         style="fill:#87cdde;fill-opacity:1;stroke:none;stroke-width:1.06666672" />
    </g>
    <g
       id="g4463"
       transform="translate(287.24409)">
      <rect
         style="fill:#16444f;fill-opacity:1;fill-rule:nonzero;stroke:none;stroke-width:1.06666672"
         id="rect4465"
         width="7.559062"
         height="11.338569"
         x="234.33072"
         y="521.57477" />
      <path
         style="fill:#87cdde;fill-opacity:1;stroke:none;stroke-width:1.06666672"
         d="m 234.61065,528.84807 -0.0418,3.73192 6.94289,-0.009 -0.003,-7.45565 c 0,0 -6.87411,-0.17258 -6.89822,3.7319 z"
         id="path4467"
         inkscape:connector-curvature="0"
         sodipodi:nodetypes="cccccc" />
    </g>
    <g
       transform="translate(374.17323,26.456692)"
       id="g4469">
      <rect
         y="521.57477"
         x="234.33072"
         height="11.338569"
         width="7.559062"
         id="rect4471"
         style="fill:#16444f;fill-opacity:1;fill-rule:nonzero;stroke:none;stroke-width:1.06666672" />
      <path
         sodipodi:nodetypes="cccccc"
         inkscape:connector-curvature="0"
         id="path4473"
         d="m 234.61065,528.84807 -0.0418,3.73192 6.94289,-0.009 -0.003,-7.45565 c 0,0 -6.87411,-0.17258 -6.89822,3.7319 z"
         style="fill:#87cdde;fill-opacity:1;stroke:none;stroke-width:1.06666672" />
    </g>
    <g
       id="g4475"
       transform="translate(419.52755,26.456692)">
      <rect
         style="fill:#16444f;fill-opacity:1;fill-rule:nonzero;stroke:none;stroke-width:1.06666672"
         id="rect4477"
         width="7.559062"
         height="11.338569"
         x="234.33072"
         y="521.57477" />
      <path
         style="fill:#87cdde;fill-opacity:1;stroke:none;stroke-width:1.06666672"
         d="m 234.61065,528.84807 -0.0418,3.73192 6.94289,-0.009 -0.003,-7.45565 c 0,0 -6.87411,-0.17258 -6.89822,3.7319 z"
         id="path4479"
         inkscape:connector-curvature="0"
         sodipodi:nodetypes="cccccc" />
    </g>
    <g
       transform="translate(495.1181,3.7795265)"
       id="g4481">
      <rect
         y="521.57477"
         x="234.33072"
         height="11.338569"
         width="7.559062"
         id="rect4483"
         style="fill:#16444f;fill-opacity:1;fill-rule:nonzero;stroke:none;stroke-width:1.06666672" />
      <path
         sodipodi:nodetypes="cccccc"
         inkscape:connector-curvature="0"
         id="path4485"
         d="m 234.61065,528.84807 -0.0418,3.73192 6.94289,-0.009 -0.003,-7.45565 c 0,0 -6.87411,-0.17258 -6.89822,3.7319 z"
         style="fill:#87cdde;fill-opacity:1;stroke:none;stroke-width:1.06666672" />
    </g>
    <g
       id="g4487"
       transform="translate(521.57479,3.7795265)">
      <rect
         style="fill:#16444f;fill-opacity:1;fill-rule:nonzero;stroke:none;stroke-width:1.06666672"
         id="rect4489"
         width="7.559062"
         height="11.338569"
         x="234.33072"
         y="521.57477" />
      <path
         style="fill:#87cdde;fill-opacity:1;stroke:none;stroke-width:1.06666672"
         d="m 234.61065,528.84807 -0.0418,3.73192 6.94289,-0.009 -0.003,-7.45565 c 0,0 -6.87411,-0.17258 -6.89822,3.7319 z"
         id="path4491"
         inkscape:connector-curvature="0"
         sodipodi:nodetypes="cccccc" />
    </g>
    <g
       transform="translate(521.57479,26.456692)"
       id="g4493">
      <rect
         y="521.57477"
         x="234.33072"
         height="11.338569"
         width="7.559062"
         id="rect4495"
         style="fill:#16444f;fill-opacity:1;fill-rule:nonzero;stroke:none;stroke-width:1.06666672" />
      <path
         sodipodi:nodetypes="cccccc"
         inkscape:connector-curvature="0"
         id="path4497"
         d="m 234.61065,528.84807 -0.0418,3.73192 6.94289,-0.009 -0.003,-7.45565 c 0,0 -6.87411,-0.17258 -6.89822,3.7319 z"
         style="fill:#87cdde;fill-opacity:1;stroke:none;stroke-width:1.06666672" />
    </g>
    <g
       transform="matrix(1,0,0,0.68739202,419.52755,174.38701)"
       id="g4499">
      <rect
         y="521.57477"
         x="234.33072"
         height="11.338569"
         width="7.559062"
         id="rect4501"
         style="fill:#16444f;fill-opacity:1;fill-rule:nonzero;stroke:none;stroke-width:1.06666672" />
      <path
         sodipodi:nodetypes="cccccc"
         inkscape:connector-curvature="0"
         id="path4503"
         d="m 234.61065,528.84807 -0.0418,3.73192 6.94289,-0.009 -0.003,-7.45565 c 0,0 -6.87411,-0.17258 -6.89822,3.7319 z"
         style="fill:#87cdde;fill-opacity:1;stroke:none;stroke-width:1.06666672" />
    </g>
    <g
       id="g4505"
       transform="matrix(1,0,0,0.68739202,445.98425,174.38701)">
      <rect
         style="fill:#16444f;fill-opacity:1;fill-rule:nonzero;stroke:none;stroke-width:1.06666672"
         id="rect4507"
         width="7.559062"
         height="11.338569"
         x="234.33072"
         y="521.57477" />
      <path
         style="fill:#87cdde;fill-opacity:1;stroke:none;stroke-width:1.06666672"
         d="m 234.61065,528.84807 -0.0418,3.73192 6.94289,-0.009 -0.003,-7.45565 c 0,0 -6.87411,-0.17258 -6.89822,3.7319 z"
         id="path4509"
         inkscape:connector-curvature="0"
         sodipodi:nodetypes="cccccc" />
    </g>
    <g
       id="g4511"
       transform="matrix(1,0,0,0.68739202,158.74015,170.60748)">
      <rect
         style="fill:#16444f;fill-opacity:1;fill-rule:nonzero;stroke:none;stroke-width:1.06666672"
         id="rect4513"
         width="7.559062"
         height="11.338569"
         x="234.33072"
         y="521.57477" />
      <path
         style="fill:#87cdde;fill-opacity:1;stroke:none;stroke-width:1.06666672"
         d="m 234.61065,528.84807 -0.0418,3.73192 6.94289,-0.009 -0.003,-7.45565 c 0,0 -6.87411,-0.17258 -6.89822,3.7319 z"
         id="path4515"
         inkscape:connector-curvature="0"
         sodipodi:nodetypes="cccccc" />
    </g>
    <g
       transform="matrix(1,0,0,0.68739202,188.97637,170.60748)"
       id="g4517">
      <rect
         y="521.57477"
         x="234.33072"
         height="11.338569"
         width="7.559062"
         id="rect4519"
         style="fill:#16444f;fill-opacity:1;fill-rule:nonzero;stroke:none;stroke-width:1.06666672" />
      <path
         sodipodi:nodetypes="cccccc"
         inkscape:connector-curvature="0"
         id="path4521"
         d="m 234.61065,528.84807 -0.0418,3.73192 6.94289,-0.009 -0.003,-7.45565 c 0,0 -6.87411,-0.17258 -6.89822,3.7319 z"
         style="fill:#87cdde;fill-opacity:1;stroke:none;stroke-width:1.06666672" />
    </g>
    <rect
       style="display:inline;fill:#ff3c00;fill-opacity:1;fill-rule:nonzero;stroke:none;stroke-width:1.60000002;stroke-miterlimit:4;stroke-dasharray:none;stroke-dashoffset:0;stroke-opacity:1"
       id="rect4547"
       width="3.7795274"
       height="11.338582"
       x="275.90549"
       y="548.03143" />
    <rect
       y="548.03143"
       x="287.24411"
       height="11.338582"
       width="3.7795274"
       id="rect4568"
       style="display:inline;fill:#ff3c00;fill-opacity:1;fill-rule:nonzero;stroke:none;stroke-width:1.06666672" />
    <rect
       y="548.03143"
       x="257.00787"
       height="11.338582"
       width="3.7795274"
       id="rect4570"
       style="display:inline;fill:#ff3c00;fill-opacity:1;fill-rule:nonzero;stroke:none;stroke-width:1.06666672" />
    <rect
       style="display:inline;fill:#ff3c00;fill-opacity:1;fill-rule:nonzero;stroke:none;stroke-width:1.06666672"
       id="rect4572"
       width="3.7795274"
       height="11.338582"
       x="245.66928"
       y="548.03143" />
    <rect
       y="521.57477"
       x="257.00787"
       height="11.338582"
       width="3.7795274"
       id="rect4574"
       style="display:inline;fill:#ff3c00;fill-opacity:1;fill-rule:nonzero;stroke:none;stroke-width:1.06666672" />
    <rect
       style="display:inline;fill:#ff3c00;fill-opacity:1;fill-rule:nonzero;stroke:none;stroke-width:1.06666672"
       id="rect4576"
       width="3.7795274"
       height="11.338582"
       x="245.66928"
       y="521.57477" />
    <rect
       style="display:inline;fill:#ff3c00;fill-opacity:1;fill-rule:nonzero;stroke:none;stroke-width:1.06666672"
       id="rect4580"
       width="3.7795274"
       height="11.338582"
       x="238.11024"
       y="521.57477" />
    <g
       id="g4380"
       transform="translate(15.118106)">
      <rect
         style="fill:#16444f;fill-opacity:1;fill-rule:nonzero;stroke:none;stroke-width:1.06666672"
         id="rect4382"
         width="7.559062"
         height="11.338569"
         x="234.33072"
         y="521.57477" />
      <path
         style="fill:#87cdde;fill-opacity:1;stroke:none;stroke-width:1.06666672"
         d="m 234.61065,528.84807 -0.0418,3.73192 6.94289,-0.009 -0.003,-7.45565 c 0,0 -6.87411,-0.17258 -6.89822,3.7319 z"
         id="path4384"
         inkscape:connector-curvature="0"
         sodipodi:nodetypes="cccccc" />
    </g>
    <g
       transform="translate(15.118106,26.456692)"
       id="g4386">
      <rect
         y="521.57477"
         x="234.33072"
         height="11.338569"
         width="7.559062"
         id="rect4388"
         style="fill:#16444f;fill-opacity:1;fill-rule:nonzero;stroke:none;stroke-width:1.06666672" />
      <path
         sodipodi:nodetypes="cccccc"
         inkscape:connector-curvature="0"
         id="path4390"
         d="m 234.61065,528.84807 -0.0418,3.73192 6.94289,-0.009 -0.003,-7.45565 c 0,0 -6.87411,-0.17258 -6.89822,3.7319 z"
         style="fill:#87cdde;fill-opacity:1;stroke:none;stroke-width:1.06666672" />
    </g>
    <rect
       y="521.57477"
       x="230.55119"
       height="11.338582"
       width="3.7795274"
       id="rect4578"
       style="display:inline;fill:#ff3c00;fill-opacity:1;fill-rule:nonzero;stroke:none;stroke-width:1.06666672" />
    <rect
       style="display:inline;fill:#ff3c00;fill-opacity:1;fill-rule:nonzero;stroke:none;stroke-width:1.06666672"
       id="rect4582"
       width="3.7795274"
       height="11.338582"
       x="385.51181"
       y="548.03143" />
    <rect
       y="548.03143"
       x="434.64566"
       height="11.338582"
       width="3.7795274"
       id="rect4584"
       style="display:inline;fill:#ff3c00;fill-opacity:1;fill-rule:nonzero;stroke:none;stroke-width:1.06666672" />
    <rect
       style="display:inline;fill:#ff3c00;fill-opacity:1;fill-rule:nonzero;stroke:none;stroke-width:1.06666672"
       id="rect4586"
       width="3.7795274"
       height="11.338582"
       x="461.10239"
       y="521.57477" />
    <rect
       y="521.57477"
       x="472.44095"
       height="11.338582"
       width="3.7795274"
       id="rect4588"
       style="display:inline;fill:#ff3c00;fill-opacity:1;fill-rule:nonzero;stroke:none;stroke-width:1.06666672" />
    <rect
       style="display:inline;fill:#ff3c00;fill-opacity:1;fill-rule:nonzero;stroke:none;stroke-width:1.06666672"
       id="rect4590"
       width="3.7795274"
       height="11.338582"
       x="487.55905"
       y="521.57477" />
    <rect
       y="521.57477"
       x="498.89761"
       height="11.338582"
       width="3.7795274"
       id="rect4592"
       style="display:inline;fill:#ff3c00;fill-opacity:1;fill-rule:nonzero;stroke:none;stroke-width:1.06666672" />
    <rect
       style="display:inline;fill:#ff3c00;fill-opacity:1;fill-rule:nonzero;stroke:none;stroke-width:1.06666672"
       id="rect4594"
       width="3.7795274"
       height="11.338582"
       x="498.89761"
       y="548.03143" />
    <rect
       y="548.03143"
       x="487.55905"
       height="11.338582"
       width="3.7795274"
       id="rect4596"
       style="display:inline;fill:#ff3c00;fill-opacity:1;fill-rule:nonzero;stroke:none;stroke-width:1.06666672" />
    <rect
       style="display:inline;fill:#ff3c00;fill-opacity:1;fill-rule:nonzero;stroke:none;stroke-width:1.06666672"
       id="rect4598"
       width="3.7795274"
       height="11.338582"
       x="529.13385"
       y="521.57477" />
    <rect
       y="548.03143"
       x="616.06305"
       height="11.338582"
       width="3.7795274"
       id="rect4600"
       style="display:inline;fill:#ff3c00;fill-opacity:1;fill-rule:nonzero;stroke:none;stroke-width:1.06666672" />
    <rect
       style="display:inline;fill:#ff3c00;fill-opacity:1;fill-rule:nonzero;stroke:none;stroke-width:1.06666672"
       id="rect4602"
       width="3.7795274"
       height="11.338582"
       x="650.07874"
       y="548.03143" />
    <rect
       y="548.03143"
       x="661.4173"
       height="11.338582"
       width="3.7795274"
       id="rect4604"
       style="display:inline;fill:#ff3c00;fill-opacity:1;fill-rule:nonzero;stroke:none;stroke-width:1.06666672" />
    <rect
       style="display:inline;fill:#ff3c00;fill-opacity:1;fill-rule:nonzero;stroke:none;stroke-width:1.06666672"
       id="rect4606"
       width="3.7795274"
       height="11.338582"
       x="725.66925"
       y="525.35425" />
    <rect
       y="525.35425"
       x="763.4646"
       height="11.338582"
       width="3.7795274"
       id="rect4608"
       style="display:inline;fill:#ff3c00;fill-opacity:1;fill-rule:nonzero;stroke:none;stroke-width:1.06666672" />
    <rect
       style="display:inline;fill:#ff3c00;fill-opacity:1;fill-rule:nonzero;stroke:none;stroke-width:1.06666672"
       id="rect4610"
       width="3.7795274"
       height="11.338582"
       x="763.4646"
       y="548.03143" />
    <rect
       y="525.35425"
       x="755.90552"
       height="11.338582"
       width="3.7795274"
       id="rect4612"
       style="display:inline;fill:#ff3c00;fill-opacity:1;fill-rule:nonzero;stroke:none;stroke-width:1.06666672" />
    <rect
       style="display:inline;fill:#ff3c00;fill-opacity:1;fill-rule:nonzero;stroke:none;stroke-width:1.06666672"
       id="rect4614"
       width="3.7795274"
       height="11.338582"
       x="752.12598"
       y="548.03143" />
    <rect
       y="525.35425"
       x="737.00787"
       height="11.338582"
       width="3.7795274"
       id="rect4616"
       style="display:inline;fill:#ff3c00;fill-opacity:1;fill-rule:nonzero;stroke:none;stroke-width:1.06666672" />
    <rect
       style="fill:#cccccc;fill-opacity:1;fill-rule:nonzero;stroke:none;stroke-width:1.06666672"
       id="rect4618"
       width="64.251968"
       height="3.7795274"
       x="377.95276"
       y="521.57477" />
    <rect
       y="510.23618"
       x="453.5433"
       height="3.7795274"
       width="56.692917"
       id="rect4620"
       style="fill:#cccccc;fill-opacity:1;fill-rule:nonzero;stroke:none;stroke-width:1.06666672" />
    <rect
       style="fill:#cccccc;fill-opacity:1;fill-rule:nonzero;stroke:none;stroke-width:1.06666672"
       id="rect4622"
       width="37.795269"
       height="3.7795274"
       x="514.01575"
       y="510.23618" />
    <rect
       y="529.13379"
       x="585.82678"
       height="3.7795274"
       width="37.795269"
       id="rect4624"
       style="fill:#cccccc;fill-opacity:1;fill-rule:nonzero;stroke:none;stroke-width:1.06666672" />
    <g
       transform="translate(366.61417,4.7837927e-6)"
       id="g4523">
      <path
         style="fill:#16444f;fill-opacity:1;fill-rule:nonzero;stroke:none;stroke-width:1.06666672"
         d="m 234.33071,525.35427 3.69067,-3.77953 3.86839,3.77953 v 7.55904 h -7.55906 z"
         id="path4525"
         inkscape:connector-curvature="0"
         sodipodi:nodetypes="cccccc" />
      <path
         sodipodi:nodetypes="cccccc"
         inkscape:connector-curvature="0"
         id="path4527"
         d="m 234.61065,528.84807 -0.0418,3.73192 6.94289,-0.009 -0.003,-7.21719 c 0,0 -6.87411,-0.41104 -6.89822,3.49344 z"
         style="fill:#87cdde;fill-opacity:1;stroke:none;stroke-width:1.06666672" />
      <path
         style="display:inline;fill:none;stroke:#552200;stroke-width:1.06666672px;stroke-linecap:butt;stroke-linejoin:miter;stroke-opacity:1"
         d="m 234.33072,525.35426 3.77952,-3.77952 3.77953,3.77952 v 0"
         id="path4529"
         inkscape:connector-curvature="0" />
    </g>
    <rect
       style="fill:#cccccc;fill-opacity:1;fill-rule:nonzero;stroke:none;stroke-width:1.06666672"
       id="rect4626"
       width="56.692936"
       height="3.7795274"
       x="642.51965"
       y="525.35425" />
    <rect
       y="506.45663"
       x="718.11023"
       height="3.7795274"
       width="56.692936"
       id="rect4628"
       style="fill:#cccccc;fill-opacity:1;fill-rule:nonzero;stroke:none;stroke-width:1.06666672" />
    <g
       id="g4531"
       transform="translate(495.20697,-18.897641)">
      <path
         sodipodi:nodetypes="cccccc"
         inkscape:connector-curvature="0"
         id="path4533"
         d="m 234.33071,525.35427 3.69067,-3.77953 3.86839,3.77953 v 7.55904 h -7.55906 z"
         style="fill:#16444f;fill-opacity:1;fill-rule:nonzero;stroke:none;stroke-width:1.06666672" />
      <path
         style="fill:#87cdde;fill-opacity:1;stroke:none;stroke-width:1.06666672"
         d="m 234.61065,528.84807 -0.0418,3.73192 6.94289,-0.009 -0.003,-7.21719 c 0,0 -6.87411,-0.41104 -6.89822,3.49344 z"
         id="path4535"
         inkscape:connector-curvature="0"
         sodipodi:nodetypes="cccccc" />
      <path
         inkscape:connector-curvature="0"
         id="path4537"
         d="m 234.33072,525.35426 3.77952,-3.77952 3.77953,3.77952 v 0"
         style="display:inline;fill:none;stroke:#552200;stroke-width:1.06666672px;stroke-linecap:butt;stroke-linejoin:miter;stroke-opacity:1" />
    </g>
    <g
       transform="translate(521.66366,-18.897641)"
       id="g4539">
      <path
         style="fill:#16444f;fill-opacity:1;fill-rule:nonzero;stroke:none;stroke-width:1.06666672"
         d="m 234.33071,525.35427 3.69067,-3.77953 3.86839,3.77953 v 7.55904 h -7.55906 z"
         id="path4541"
         inkscape:connector-curvature="0"
         sodipodi:nodetypes="cccccc" />
      <path
         sodipodi:nodetypes="cccccc"
         inkscape:connector-curvature="0"
         id="path4543"
         d="m 234.61065,528.84807 -0.0418,3.73192 6.94289,-0.009 -0.003,-7.21719 c 0,0 -6.87411,-0.41104 -6.89822,3.49344 z"
         style="fill:#87cdde;fill-opacity:1;stroke:none;stroke-width:1.06666672" />
      <path
         style="display:inline;fill:none;stroke:#552200;stroke-width:1.06666672px;stroke-linecap:butt;stroke-linejoin:miter;stroke-opacity:1"
         d="m 234.33072,525.35426 3.77952,-3.77952 3.77953,3.77952 v 0"
         id="path4545"
         inkscape:connector-curvature="0" />
    </g>
    <rect
       y="529.13379"
       x="268.34647"
       height="3.7795274"
       width="56.692921"
       id="rect4630"
       style="fill:#cccccc;fill-opacity:1;fill-rule:nonzero;stroke:none;stroke-width:1.06666672" />
    <g
       transform="translate(49.222719)"
       id="g4398">
      <path
         style="fill:#16444f;fill-opacity:1;fill-rule:nonzero;stroke:none;stroke-width:1.06666672"
         d="m 234.33071,525.35427 3.69067,-3.77953 3.86839,3.77953 v 7.55904 h -7.55906 z"
         id="rect4400"
         inkscape:connector-curvature="0"
         sodipodi:nodetypes="cccccc" />
      <path
         sodipodi:nodetypes="cccccc"
         inkscape:connector-curvature="0"
         id="path4402"
         d="m 234.61065,528.84807 -0.0418,3.73192 6.94289,-0.009 -0.003,-7.21719 c 0,0 -6.87411,-0.41104 -6.89822,3.49344 z"
         style="fill:#87cdde;fill-opacity:1;stroke:none;stroke-width:1.06666672" />
      <path
         style="display:inline;fill:none;stroke:#552200;stroke-width:1.06666672px;stroke-linecap:butt;stroke-linejoin:miter;stroke-opacity:1"
         d="m 234.33072,525.35426 3.77952,-3.77952 3.77953,3.77952 v 0"
         id="path4405"
         inkscape:connector-curvature="0" />
    </g>
    <g
       id="g4425"
       transform="translate(68.120356,-2.7752627e-6)">
      <path
         sodipodi:nodetypes="cccccc"
         inkscape:connector-curvature="0"
         id="path4427"
         d="m 234.33071,525.35427 3.69067,-3.77953 3.86839,3.77953 v 7.55904 h -7.55906 z"
         style="fill:#16444f;fill-opacity:1;fill-rule:nonzero;stroke:none;stroke-width:1.06666672" />
      <path
         style="fill:#87cdde;fill-opacity:1;stroke:none;stroke-width:1.06666672"
         d="m 234.61065,528.84807 -0.0418,3.73192 6.94289,-0.009 -0.003,-7.21719 c 0,0 -6.87411,-0.41104 -6.89822,3.49344 z"
         id="path4429"
         inkscape:connector-curvature="0"
         sodipodi:nodetypes="cccccc" />
      <path
         inkscape:connector-curvature="0"
         id="path4431"
         d="m 234.33072,525.35426 3.77952,-3.77952 3.77953,3.77952 v 0"
         style="display:inline;fill:none;stroke:#552200;stroke-width:1.06666672px;stroke-linecap:butt;stroke-linejoin:miter;stroke-opacity:1" />
    </g>
    <rect
       style="fill:#cccccc;fill-opacity:1;fill-rule:nonzero;stroke:none;stroke-width:1.06666672"
       id="rect4632"
       width="37.795284"
       height="3.7795274"
       x="226.77165"
       y="510.23618" />
    <rect
       y="548.03143"
       x="733.22839"
       height="18.897638"
       width="3.7795184"
       id="rect4634"
       style="fill:#722d00;fill-opacity:1;fill-rule:nonzero;stroke:none;stroke-width:1.06666672" />
    <rect
       style="fill:#722d00;fill-opacity:1;fill-rule:nonzero;stroke:none;stroke-width:1.06666672"
       id="rect4636"
       width="3.7795184"
       height="18.897638"
       x="684.09448"
       y="548.03143" />
    <rect
       y="548.03143"
       x="597.16534"
       height="18.897638"
       width="3.7795184"
       id="rect4638"
       style="fill:#722d00;fill-opacity:1;fill-rule:nonzero;stroke:none;stroke-width:1.06666672" />
    <rect
       style="fill:#722d00;fill-opacity:1;fill-rule:nonzero;stroke:none;stroke-width:1.06666672"
       id="rect4640"
       width="3.7795184"
       height="18.897638"
       x="536.69293"
       y="548.03143" />
    <rect
       y="548.03143"
       x="468.66144"
       height="18.897638"
       width="3.7795184"
       id="rect4642"
       style="fill:#722d00;fill-opacity:1;fill-rule:nonzero;stroke:none;stroke-width:1.06666672" />
    <rect
       style="fill:#722d00;fill-opacity:1;fill-rule:nonzero;stroke:none;stroke-width:1.06666672"
       id="rect4644"
       width="3.7795184"
       height="18.897638"
       x="411.96848"
       y="548.03143" />
    <rect
       y="548.03143"
       x="306.14172"
       height="18.897638"
       width="3.7795184"
       id="rect4646"
       style="fill:#722d00;fill-opacity:1;fill-rule:nonzero;stroke:none;stroke-width:1.06666672" />
    <rect
       style="fill:#722d00;fill-opacity:1;fill-rule:nonzero;stroke:none;stroke-width:1.06666672"
       id="rect4648"
       width="3.7795184"
       height="18.897638"
       x="238.11024"
       y="548.03143" />
    <path
       style="fill:#ffffff;fill-opacity:1;fill-rule:nonzero;stroke:none;stroke-width:1.06666672"
       d="m 563.14961,559.36998 3.77952,-3.77949 3.77953,3.77949 v 7.55905 h -7.55905 z"
       id="rect4650"
       inkscape:connector-curvature="0"
       sodipodi:nodetypes="cccccc" />
    <path
       inkscape:connector-curvature="0"
       id="path4652"
       d="m 563.14961,559.37002 3.77952,-3.77953 3.77953,3.77953"
       style="fill:none;stroke:#ff3c00;stroke-width:1.06666672;stroke-opacity:1"
       sodipodi:nodetypes="ccc" />
    <path
       style="fill:#000000;stroke:none;stroke-width:1.06666672"
       d="m 565.03938,566.92907 v -3.77952 c 0,-3.77953 3.77952,-3.77953 3.77952,0 v 3.77952 z"
       id="path4655"
       inkscape:connector-curvature="0"
       sodipodi:nodetypes="ccccc" />
    <rect
       style="fill:#ffffff;fill-opacity:1;fill-rule:nonzero;stroke:none;stroke-width:1.06666672"
       id="rect4657"
       width="7.5590549"
       height="15.11811"
       x="687.87402"
       y="506.45663" />
    <path
       inkscape:connector-curvature="0"
       id="path3867"
       d="m 642.51969,525.35427 15.1181,-18.89764 h 26.4567 l 15.11811,18.89764 z"
       style="fill:#ff3c00;fill-opacity:1;stroke:none;stroke-width:1.06666672"
       sodipodi:nodetypes="ccccc" />
    <rect
       style="fill:#ff3c00;fill-opacity:1;fill-rule:nonzero;stroke:none;stroke-width:1.06666672"
       id="rect4659"
       width="7.5590549"
       height="1.6842895"
       x="687.87402"
       y="506.45663" />
  </g>
  <g
     inkscape:label="Car"
     id="layer6"
     inkscape:groupmode="layer">
    <rect
       inkscape:label="#rect3939"
       y="585.82672"
       x="170.07875"
       height="113.38583"
       width="151.18111"
       id="voiture-depart"
       style="display:inline;fill:none;stroke:#ff6600;stroke-width:1.06666672" />
    <rect
       inkscape:label="#rect3952"
       style="display:inline;fill:none;stroke:#ff6600;stroke-width:1.06666672"
       id="voiture-arrivee"
       width="151.18111"
       height="113.38583"
       x="94.48819"
       y="585.82672" />
    <g
       id="g4362"
       transform="matrix(0.6800487,0,0,0.6800487,60.463236,223.71396)">
      <path
         sodipodi:nodetypes="sssss"
         inkscape:connector-curvature="0"
         id="path4354"
         d="m 188.97637,691.65348 c 3.40158,3.77953 20.40946,3.77951 30.61419,3.77952 3.40157,0 3.40157,-1.99783 3.40157,-3.77952 0,-3.77953 -10.20473,-15.11811 -23.81102,-15.11811 -7.26025,0 -15.3385,9.41393 -10.20474,15.11811 z"
         style="fill:#ff39d6;fill-opacity:1;stroke:none;stroke-width:1.06666672" />
      <path
         style="fill:#ff80e5;stroke:none;stroke-width:1.06666672"
         d="m 191.74781,690.31062 c 3.02442,3.36048 18.1466,3.36047 27.21989,3.36047 3.02443,0 3.92919,-0.87156 3.92919,-2.45571 0,-3.36048 -10.21615,-14.77525 -23.59959,-14.63239 -6.45491,0.0689 -12.11406,8.65589 -7.54949,13.72763 z"
         id="path3948"
         inkscape:connector-curvature="0"
         sodipodi:nodetypes="sssss" />
      <circle
         style="fill:#000000;fill-opacity:1;fill-rule:nonzero;stroke:none;stroke-width:1.06666672"
         id="path3942"
         cx="196.53543"
         cy="695.43298"
         r="3.7795274" />
      <circle
         id="path3944"
         style="fill:#000000;fill-opacity:1;fill-rule:nonzero;stroke:none;stroke-width:1.06666672"
         cx="215.43307"
         cy="695.43298"
         r="3.7795274" />
      <path
         style="fill:#916f6f;stroke:none;stroke-width:1.06666672"
         d="m 208.21073,679.43943 c -2.81709,0 -5.19322,3.68114 -3.71218,6.0775 1.32468,2.14337 10.41797,2.68212 12.7528,1.21218 2.38398,-1.50089 -6.22353,-7.28968 -9.04062,-7.28968 z"
         id="path3950"
         inkscape:connector-curvature="0"
         sodipodi:nodetypes="zssz" />
      <path
         sodipodi:nodetypes="zssz"
         inkscape:connector-curvature="0"
         id="path4356"
         d="m 208.54625,679.72515 c -2.561,0 -4.72112,3.27084 -3.37472,5.4001 1.20426,1.90448 9.47092,2.38318 11.5935,1.07708 2.16727,-1.3336 -5.65778,-6.47718 -8.21878,-6.47718 z"
         style="fill:#7b5d5d;fill-opacity:1;stroke:none;stroke-width:1.06666672" />
      <circle
         id="path4358"
         style="fill:#444444;fill-opacity:1;fill-rule:nonzero;stroke:none;stroke-width:0.55597883"
         cx="196.53543"
         cy="695.43298"
         r="1.9700037" />
      <circle
         style="fill:#444444;fill-opacity:1;fill-rule:nonzero;stroke:none;stroke-width:0.55597883"
         id="path4360"
         cx="215.43307"
         cy="695.43298"
         r="1.9700037" />
    </g>
  </g>
</svg>
